# xmcd
#
# Track frame offsets: 
#        150
#        16011
#        32384
#        54235
#        70368
#        88847
#        104314
#        117358
#        131991
#        148688
#        166177
#        182125
#        198193
#        217777
#        233795
#        252784
#        272231
#        289332
#        296685
#        328130
#
# Disc length: 4815 seconds
#
# Revision: 0
# Processed by: cddbd v1.5.2PL0 Copyright (c) Steve Scherf et al.
# Submitted via: ExactAudioCopy v0.99pb4
#
DISCID=2912cd14
DTITLE=Shania Twain - Come On Over and Bonus
DYEAR=1900
DGENRE=
TTITLE0=You're Still The One
TTITLE1=When
TTITLE2=From This Moment On
TTITLE3=Black Eyes, Blue Tears
TTITLE4=I Won't Leave You Lonely
TTITLE5=I'm Holdin' On To Love
TTITLE6=Come On Over
TTITLE7=You'we Got A Way
TTITLE8=Whatever You Do! Don't!
TTITLE9=Man! I Feel Like A Woman!
TTITLE10=Love Gets Me Every Time
TTITLE11=Don't Be Stupid
TTITLE12=That Don't Impress Me Much
TTITLE13=Honey I'm Home
TTITLE14=If You Wanna Touch Her, Ask!
TTITLE15=Rock This Country!
TTITLE16=God Bless The Child (single mix)
TTITLE17=Amneris' Letter
TTITLE18=I'm Outta Here
TTITLE19=Medley
EXTD=
EXTT0=
EXTT1=
EXTT2=
EXTT3=
EXTT4=
EXTT5=
EXTT6=
EXTT7=
EXTT8=
EXTT9=
EXTT10=
EXTT11=
EXTT12=
EXTT13=
EXTT14=
EXTT15=
EXTT16=
EXTT17=
EXTT18=
EXTT19=
PLAYORDER=
